<mxfile host="app.diagrams.net" modified="2023-03-27T01:09:14.650Z" agent="Mozilla/5.0 (Windows NT 10.0; Win64; x64) AppleWebKit/537.36 (KHTML, like Gecko) Chrome/111.0.0.0 Safari/537.36" etag="eZWkqFKNU_jTp2EwvvY-" version="21.1.1" type="device">
  <diagram name="Page-1" id="V2IBDxBGVvBA8kxmHZTV">
    <mxGraphModel dx="941" dy="1445" grid="1" gridSize="10" guides="1" tooltips="1" connect="1" arrows="1" fold="1" page="1" pageScale="1" pageWidth="850" pageHeight="1100" math="0" shadow="0">
      <root>
        <mxCell id="0" />
        <mxCell id="1" parent="0" />
        <mxCell id="qjJv7VErsf4sgIrALdL6-6" style="edgeStyle=orthogonalEdgeStyle;rounded=0;orthogonalLoop=1;jettySize=auto;html=1;exitX=0.5;exitY=1;exitDx=0;exitDy=0;entryX=0.5;entryY=0;entryDx=0;entryDy=0;" edge="1" parent="1" source="qjJv7VErsf4sgIrALdL6-4" target="qjJv7VErsf4sgIrALdL6-7">
          <mxGeometry relative="1" as="geometry">
            <mxPoint x="417" y="250" as="targetPoint" />
          </mxGeometry>
        </mxCell>
        <mxCell id="qjJv7VErsf4sgIrALdL6-10" style="edgeStyle=orthogonalEdgeStyle;rounded=0;orthogonalLoop=1;jettySize=auto;html=1;exitX=0.5;exitY=1;exitDx=0;exitDy=0;entryX=0.5;entryY=0;entryDx=0;entryDy=0;" edge="1" parent="1" source="qjJv7VErsf4sgIrALdL6-4" target="qjJv7VErsf4sgIrALdL6-11">
          <mxGeometry relative="1" as="geometry">
            <mxPoint x="557" y="260" as="targetPoint" />
            <Array as="points" />
          </mxGeometry>
        </mxCell>
        <mxCell id="qjJv7VErsf4sgIrALdL6-14" style="edgeStyle=orthogonalEdgeStyle;rounded=0;orthogonalLoop=1;jettySize=auto;html=1;exitX=0.5;exitY=1;exitDx=0;exitDy=0;" edge="1" parent="1" source="qjJv7VErsf4sgIrALdL6-4">
          <mxGeometry relative="1" as="geometry">
            <mxPoint x="737" y="250" as="targetPoint" />
          </mxGeometry>
        </mxCell>
        <mxCell id="qjJv7VErsf4sgIrALdL6-4" value="" style="rounded=0;whiteSpace=wrap;html=1;" vertex="1" parent="1">
          <mxGeometry x="497" y="90" width="120" height="80" as="geometry" />
        </mxCell>
        <mxCell id="qjJv7VErsf4sgIrALdL6-5" value="app" style="text;html=1;strokeColor=none;fillColor=none;align=center;verticalAlign=middle;whiteSpace=wrap;rounded=0;" vertex="1" parent="1">
          <mxGeometry x="527" y="115" width="60" height="30" as="geometry" />
        </mxCell>
        <mxCell id="qjJv7VErsf4sgIrALdL6-20" style="edgeStyle=orthogonalEdgeStyle;rounded=0;orthogonalLoop=1;jettySize=auto;html=1;exitX=0.5;exitY=1;exitDx=0;exitDy=0;entryX=0.5;entryY=0;entryDx=0;entryDy=0;" edge="1" parent="1" source="qjJv7VErsf4sgIrALdL6-7" target="qjJv7VErsf4sgIrALdL6-21">
          <mxGeometry relative="1" as="geometry">
            <mxPoint x="357" y="450" as="targetPoint" />
            <Array as="points" />
          </mxGeometry>
        </mxCell>
        <mxCell id="qjJv7VErsf4sgIrALdL6-56" style="edgeStyle=orthogonalEdgeStyle;rounded=0;orthogonalLoop=1;jettySize=auto;html=1;exitX=0;exitY=0.5;exitDx=0;exitDy=0;fontFamily=Helvetica;fontSize=12;fontColor=default;curved=1;entryX=0;entryY=0;entryDx=95;entryDy=100;entryPerimeter=0;" edge="1" parent="1" source="qjJv7VErsf4sgIrALdL6-7" target="qjJv7VErsf4sgIrALdL6-42">
          <mxGeometry relative="1" as="geometry" />
        </mxCell>
        <mxCell id="qjJv7VErsf4sgIrALdL6-7" value="" style="rounded=0;whiteSpace=wrap;html=1;" vertex="1" parent="1">
          <mxGeometry x="297" y="250" width="120" height="80" as="geometry" />
        </mxCell>
        <mxCell id="qjJv7VErsf4sgIrALdL6-57" style="edgeStyle=orthogonalEdgeStyle;rounded=0;orthogonalLoop=1;jettySize=auto;html=1;exitX=0.5;exitY=1;exitDx=0;exitDy=0;entryX=0;entryY=0;entryDx=120;entryDy=110;entryPerimeter=0;fontFamily=Helvetica;fontSize=12;fontColor=default;curved=1;" edge="1" parent="1" source="qjJv7VErsf4sgIrALdL6-11" target="qjJv7VErsf4sgIrALdL6-33">
          <mxGeometry relative="1" as="geometry" />
        </mxCell>
        <mxCell id="qjJv7VErsf4sgIrALdL6-11" value="" style="rounded=0;whiteSpace=wrap;html=1;" vertex="1" parent="1">
          <mxGeometry x="497" y="250" width="120" height="80" as="geometry" />
        </mxCell>
        <mxCell id="qjJv7VErsf4sgIrALdL6-15" value="" style="rounded=0;whiteSpace=wrap;html=1;" vertex="1" parent="1">
          <mxGeometry x="677" y="250" width="120" height="80" as="geometry" />
        </mxCell>
        <mxCell id="qjJv7VErsf4sgIrALdL6-16" value="NotesListPage" style="text;html=1;strokeColor=none;fillColor=none;align=center;verticalAlign=middle;whiteSpace=wrap;rounded=0;" vertex="1" parent="1">
          <mxGeometry x="327" y="275" width="60" height="30" as="geometry" />
        </mxCell>
        <mxCell id="qjJv7VErsf4sgIrALdL6-17" value="NotesListPage" style="text;html=1;strokeColor=none;fillColor=none;align=center;verticalAlign=middle;whiteSpace=wrap;rounded=0;" vertex="1" parent="1">
          <mxGeometry x="327" y="275" width="60" height="30" as="geometry" />
        </mxCell>
        <mxCell id="qjJv7VErsf4sgIrALdL6-18" value="NotesPage" style="text;html=1;strokeColor=none;fillColor=none;align=center;verticalAlign=middle;whiteSpace=wrap;rounded=0;" vertex="1" parent="1">
          <mxGeometry x="527" y="275" width="60" height="30" as="geometry" />
        </mxCell>
        <mxCell id="qjJv7VErsf4sgIrALdL6-19" value="ErrorPage" style="text;html=1;strokeColor=none;fillColor=none;align=center;verticalAlign=middle;whiteSpace=wrap;rounded=0;" vertex="1" parent="1">
          <mxGeometry x="707" y="275" width="60" height="30" as="geometry" />
        </mxCell>
        <mxCell id="qjJv7VErsf4sgIrALdL6-54" style="edgeStyle=orthogonalEdgeStyle;rounded=0;orthogonalLoop=1;jettySize=auto;html=1;exitX=0.5;exitY=1;exitDx=0;exitDy=0;entryX=0;entryY=0;entryDx=95;entryDy=160;entryPerimeter=0;fontFamily=Helvetica;fontSize=12;fontColor=default;curved=1;" edge="1" parent="1" source="qjJv7VErsf4sgIrALdL6-21" target="qjJv7VErsf4sgIrALdL6-53">
          <mxGeometry relative="1" as="geometry" />
        </mxCell>
        <mxCell id="qjJv7VErsf4sgIrALdL6-21" value="" style="rounded=0;whiteSpace=wrap;html=1;" vertex="1" parent="1">
          <mxGeometry x="297" y="410" width="120" height="80" as="geometry" />
        </mxCell>
        <mxCell id="qjJv7VErsf4sgIrALdL6-22" value="ListItem" style="text;html=1;strokeColor=none;fillColor=none;align=center;verticalAlign=middle;whiteSpace=wrap;rounded=0;" vertex="1" parent="1">
          <mxGeometry x="327" y="435" width="60" height="30" as="geometry" />
        </mxCell>
        <mxCell id="qjJv7VErsf4sgIrALdL6-33" value="" style="shape=callout;whiteSpace=wrap;html=1;perimeter=calloutPerimeter;rotation=-180;" vertex="1" parent="1">
          <mxGeometry x="497" y="395" width="240" height="110" as="geometry" />
        </mxCell>
        <mxCell id="qjJv7VErsf4sgIrALdL6-39" value="useEffect, state and async function set up to get a single note by id with useParmas hook. each note will be available in app since its the parent component" style="text;html=1;strokeColor=none;fillColor=none;align=center;verticalAlign=middle;whiteSpace=wrap;rounded=0;" vertex="1" parent="1">
          <mxGeometry x="502" y="410" width="230" height="100" as="geometry" />
        </mxCell>
        <mxCell id="qjJv7VErsf4sgIrALdL6-42" value="" style="shape=callout;whiteSpace=wrap;html=1;perimeter=calloutPerimeter;rotation=-180;" vertex="1" parent="1">
          <mxGeometry x="54" y="405" width="190" height="105" as="geometry" />
        </mxCell>
        <mxCell id="qjJv7VErsf4sgIrALdL6-59" style="edgeStyle=orthogonalEdgeStyle;rounded=0;orthogonalLoop=1;jettySize=auto;html=1;entryX=0;entryY=0;entryDx=190;entryDy=65;entryPerimeter=0;fontFamily=Helvetica;fontSize=12;fontColor=default;startArrow=classic;startFill=1;" edge="1" parent="1" target="qjJv7VErsf4sgIrALdL6-53">
          <mxGeometry relative="1" as="geometry">
            <mxPoint x="149" y="510" as="sourcePoint" />
            <Array as="points">
              <mxPoint x="149" y="635" />
            </Array>
          </mxGeometry>
        </mxCell>
        <mxCell id="qjJv7VErsf4sgIrALdL6-60" style="edgeStyle=orthogonalEdgeStyle;rounded=0;orthogonalLoop=1;jettySize=auto;html=1;exitX=0.5;exitY=1;exitDx=0;exitDy=0;fontFamily=Helvetica;fontSize=12;fontColor=default;" edge="1" parent="1" source="qjJv7VErsf4sgIrALdL6-43">
          <mxGeometry relative="1" as="geometry">
            <mxPoint x="148.90909090909088" y="520.4545454545453" as="targetPoint" />
          </mxGeometry>
        </mxCell>
        <mxCell id="qjJv7VErsf4sgIrALdL6-43" value="useEffect, state and async function set up to get all notes from the server. All notes are mapped out&amp;nbsp; as a Listitem" style="text;html=1;strokeColor=none;fillColor=none;align=center;verticalAlign=middle;whiteSpace=wrap;rounded=0;" vertex="1" parent="1">
          <mxGeometry x="64" y="420" width="170" height="100" as="geometry" />
        </mxCell>
        <mxCell id="qjJv7VErsf4sgIrALdL6-53" value="" style="shape=callout;whiteSpace=wrap;html=1;perimeter=calloutPerimeter;strokeColor=default;fontFamily=Helvetica;fontSize=12;fontColor=default;fillColor=default;rotation=-180;" vertex="1" parent="1">
          <mxGeometry x="197" y="540" width="190" height="160" as="geometry" />
        </mxCell>
        <mxCell id="qjJv7VErsf4sgIrALdL6-55" value="gets a single note passed as props from NotesListPage.&lt;br&gt;&lt;br&gt;using that note&#39;s path and id in a template literal, ListItem will return Link component that make the note body a clickable link" style="text;html=1;strokeColor=none;fillColor=none;align=center;verticalAlign=middle;whiteSpace=wrap;rounded=0;" vertex="1" parent="1">
          <mxGeometry x="202" y="590" width="185" height="100" as="geometry" />
        </mxCell>
      </root>
    </mxGraphModel>
  </diagram>
</mxfile>
